<svg width="506" height="641" viewBox="0 0 506 641" fill="none" xmlns="http://www.w3.org/2000/svg">
<path d="M413.309 435.537L437.87 451.937C445.312 458.066 460.197 470.822 460.197 472.809C460.197 474.797 496.598 590.268 499.244 598.961" stroke="#1E1E1E" stroke-width="13" stroke-linecap="round"/>
<path d="M280.83 456.41H286.784L356.249 388.575" stroke="#1E1E1E" stroke-width="13" stroke-linecap="round"/>
<path d="M388.501 398.266C390.981 401.662 394.058 408.652 386.516 409.448C378.974 410.243 348.806 413.258 334.665 414.666" stroke="#1E1E1E" stroke-width="13" stroke-linecap="round"/>
<path d="M224.655 394.355C229.235 398.69 240.766 408.32 250.246 412.159C259.726 415.997 273.274 415.526 278.863 414.81" stroke="#1E1E1E" stroke-width="13" stroke-linecap="round"/>
<path d="M217.069 453.487L209.697 612.608" stroke="#1E1E1E" stroke-width="13" stroke-linecap="round"/>
<path d="M277.418 472.354C276.307 480.688 272.327 524.065 272.888 538.614C273.45 553.162 279.324 608.325 282.191 634.086" stroke="#1E1E1E" stroke-width="13" stroke-linecap="round"/>
<path d="M180.207 450.605L178.277 575.335" stroke="#1E1E1E" stroke-width="13" stroke-linecap="round"/>
<path d="M192.495 449.056V576.499" stroke="#1E1E1E" stroke-width="13" stroke-linecap="round"/>
<path d="M302.378 469.288L299.394 584.665" stroke="#1E1E1E" stroke-width="13" stroke-linecap="round"/>
<path d="M245.773 327.908C250.06 330.457 257.348 339.944 252.204 357.494C250.797 361.721 245.733 371.019 236.731 374.4L223.267 379.432" stroke="#1E1E1E" stroke-width="13" stroke-linecap="round"/>
<path d="M320.326 327.304C318.183 335.287 314.177 353.911 315.302 364.538" stroke="#1E1E1E" stroke-width="13" stroke-linecap="round"/>
<path d="M213.564 323.066L158.984 350.174V357.848L139.026 370.076L135.189 402.92L114.607 411.655L87.6294 433.718L7.06836 590.794" stroke="#1E1E1E" stroke-width="13" stroke-linecap="round"/>
<path d="M237.333 327.706C231.975 329.383 220.976 334.831 219.851 343.204C218.725 351.577 225.946 403.048 229.697 427.737C232.31 437.397 232.752 455.995 213.621 453.096C189.708 449.473 198.148 448.065 174.235 449.473L144.695 398.955" stroke="#1E1E1E" stroke-width="48.6651" stroke-linecap="round"/>
<path d="M158.762 358.098C159.699 371.919 164.508 402.377 176.244 413.648" stroke="#1E1E1E" stroke-width="13" stroke-linecap="round"/>
<path d="M182.474 420.088L199.353 441.825" stroke="#1E1E1E" stroke-width="48.6651" stroke-linecap="round"/>
<path d="M318.919 327.103L359.712 332.738C363.865 333.141 372.05 336.924 371.568 348.839C372.238 350.45 374.301 354.395 377.195 357.293" stroke="#1E1E1E" stroke-width="13" stroke-linecap="round"/>
<path d="M376.592 360.312C383.157 362.056 396.848 370.939 399.098 392.515C400.304 399.09 404.243 414.091 410.352 421.498C415.979 424.986 424.419 432.808 413.165 436.19C407.538 432.366 389.694 427.012 363.329 436.19C336.964 445.368 306.929 459.873 295.207 465.978L268.279 467.387C266.739 458.397 266.029 436.633 275.514 421.498C284.999 406.362 287.37 398.419 287.37 396.339C296.346 388.087 318.356 365.263 334.594 339.983" stroke="#1E1E1E" stroke-width="13" stroke-linecap="round"/>
<path d="M284.013 164.676C284.013 159.371 285.83 115.138 286.739 93.6854V145.268C288.955 150.725 296.003 166.879 306.464 187.835C316.926 208.791 333.505 239.858 340.487 252.771C342.167 251.089 354.115 224.359 359.879 211.205C363.239 217.44 365.314 233.431 365.932 240.648L366.796 279.988L383.594 252.771C385.669 260.095 390.799 265.885 393.104 267.864C392.734 263.163 403.974 236.689 404.715 234.091C405.308 232.013 411.385 230.669 414.349 230.256C427.318 231.617 426.824 240.153 429.418 238.792C431.493 237.704 435.799 214.091 437.694 202.422C440.163 206.875 442.428 227.7 443.251 237.555C443.251 237.555 452.392 220.607 454.862 195.989L456.161 176.579L453.731 141.765L443.522 110.116L433.313 84.5537L422.375 64.1036L406.089 42.9232L396.61 35.1326L370.358 19.7951L342.405 8.83969L320.043 2.02302L304.73 0.318848L295.493 2.02302L282.611 3.72719L276.777 0.318848L247.852 3.72719H238.372L197.537 17.3606L169.584 35.1326L147.464 53.8786C138.147 64.9961 117.956 89.8123 111.733 100.135C105.51 110.457 93.5235 131.491 88.3072 140.719C88.3072 140.719 72.8145 175.481 73.6853 191.071C75.7586 185.718 87.0365 158.146 104.846 143.235L98.6698 162.63C98.3907 169.479 97.8325 186.638 97.8325 200.477C97.8325 214.316 102.718 229.448 105.16 235.283C105.16 235.283 106.311 217.251 111.754 208.13C111.754 208.13 111.754 224.275 118.349 239.477C118.349 239.477 130.386 267.26 131.119 286.445L145.041 251.953L154.394 279.158C154.394 279.158 158.719 224.278 178.907 180.126C186.4 163.738 200.261 141.476 206.921 132.673V154.13C206.921 154.13 206.921 181.777 212.397 198.719C212.397 198.719 227.263 239.782 238.805 253.007L235.722 220.844C235.722 220.844 273.238 252.179 284.013 257.51V204.072V164.676Z" fill="#1E1E1E"/>
<path d="M315.367 457.143L312.91 566.069" stroke="#1E1E1E" stroke-width="13" stroke-linecap="round"/>
<path d="M92.4621 437.366C92.2552 436.397 92.5447 435.042 95.3617 437.366C98.1787 439.689 106.615 481.899 110.482 502.713" stroke="#1E1E1E" stroke-width="13" stroke-linecap="round"/>
<path d="M420.135 446.286C418.893 444.626 415.413 443.465 411.436 452.095C407.459 460.725 355.05 532.753 345.108 548.727" stroke="#1E1E1E" stroke-width="13" stroke-linecap="round"/>
<path d="M382.439 431.765L318.644 463.712" stroke="#1E1E1E" stroke-width="48.6651" stroke-linecap="round"/>
<path d="M232.973 434.426L266.14 446.558" stroke="#1E1E1E" stroke-width="13" stroke-linecap="round"/>
<path d="M220.284 455.802L266.139 467.934" stroke="#1E1E1E" stroke-width="13" stroke-linecap="round"/>
<path d="M216.823 476.888L275.186 491.042" stroke="#1E1E1E" stroke-width="13" stroke-linecap="round"/>
<path d="M247.637 239.678C247.637 260.542 229.144 278.068 205.546 278.068C181.948 278.068 163.455 260.542 163.455 239.678C163.455 218.813 181.948 201.287 205.546 201.287C229.144 201.287 247.637 218.813 247.637 239.678Z" stroke="#1E1E1E" stroke-width="52.1412"/>
<path d="M353.266 239.678C353.266 260.542 334.773 278.068 311.175 278.068C287.577 278.068 269.084 260.542 269.084 239.678C269.084 218.813 287.577 201.287 311.175 201.287C334.773 201.287 353.266 218.813 353.266 239.678Z" stroke="#1E1E1E" stroke-width="52.1412"/>
<path d="M229.534 299.065C239.117 304.3 264.754 313.2 290.647 306.918" stroke="#1E1E1E" stroke-width="52.1412" stroke-linecap="round"/>
<path d="M217.822 503.823L271.424 515.698" stroke="#1E1E1E" stroke-width="13" stroke-linecap="round"/>
<path d="M213.623 534.006L273.153 546.129" stroke="#1E1E1E" stroke-width="13" stroke-linecap="round"/>
<path d="M213.623 565.178L274.141 575.573" stroke="#1E1E1E" stroke-width="13" stroke-linecap="round"/>
<path d="M8.14612 590.285C13.7802 590.285 18.4122 590.458 23.7394 592.397C27.1499 593.642 32.8388 595.557 36.4146 595.725C41.2859 595.957 44.564 599.064 49.0903 599.354C55.2219 599.742 60.5109 601.079 66.5443 601.924C71.6779 602.641 77.1993 602.074 82.3884 602.074C86.598 602.074 87.9155 605.275 92.2471 605.853C96.3383 606.397 100.268 607.786 104.369 608.267C107.509 608.637 110.771 608.001 113.876 608.62C116.83 609.216 119.149 611.323 122.176 612C128.104 613.319 134.353 614.575 140.434 614.766C158.016 615.322 175.708 614.766 193.299 614.766C202.269 614.766 211.239 614.766 220.209 614.766C226.27 614.766 230.454 616.063 236.305 617.591C240.245 618.615 244.167 618.262 248.176 618.395C251.428 618.505 253.615 620.369 256.677 620.965C260.168 621.642 265.595 619.57 267.944 622.927C270.272 626.261 275.326 624.229 278.859 624.895C281.207 625.335 283.018 626.955 285.398 627.314C288.423 627.765 291.652 627.464 294.703 627.464C303.799 627.464 311.875 630.752 320.808 631.093C342.675 631.927 364.715 631.093 386.6 631.093C397.013 631.093 405.87 627.198 415.271 623.384C422.109 620.606 427.826 618.343 433.983 614.014C437.296 611.682 444.318 609.801 448.368 609.326C450.884 609.031 450.821 608.082 452.393 606.507C453.703 605.194 456.278 605.697 457.925 605.697C463.109 605.697 467.097 602.977 472.16 602.977C476.385 602.977 480.61 602.977 484.835 602.977C490.063 602.977 493.466 599.354 498.869 599.354" stroke="#1E1E1E" stroke-width="13" stroke-linecap="round"/>
<path d="M322.074 627.473C318.817 627.322 315.521 626.947 312.773 626.413C301.514 624.229 299.727 624.01 292.558 623.934C288.792 623.894 285.613 623.763 285.493 623.644C285.218 623.368 284.845 620.122 282.525 597.809C280.611 579.403 278.695 559.844 278.1 552.651C277.921 550.48 277.699 547.922 277.607 546.967C277.186 542.572 277.091 529.356 277.434 522.883C278.102 510.273 279.395 493.87 280.798 480.189C281.243 475.853 281.545 471.981 281.469 471.584C281.372 471.073 281.48 470.863 281.84 470.866C282.119 470.868 285.469 470.706 289.284 470.507C294.059 470.257 296.5 470.003 297.117 469.69C297.61 469.441 298.054 469.283 298.103 469.339C298.153 469.395 297.511 495.517 296.678 527.388C295.248 582.03 295.192 585.397 295.691 586.42C297.268 589.651 301.428 589.648 303.077 586.415C303.578 585.432 303.756 580.263 305.052 529.125C305.835 498.209 306.474 471.753 306.472 470.334C306.468 468.03 306.381 467.65 305.661 466.793L304.855 465.834L307.744 464.381C309.332 463.582 310.72 463.016 310.828 463.125C310.936 463.233 310.5 486.648 309.859 515.158C308.754 564.328 308.722 567.043 309.236 567.922C311.049 571.022 315.089 570.949 316.603 567.788C317.064 566.827 317.248 561.079 318.219 517.349C318.822 490.204 319.368 467.964 319.433 467.928C319.499 467.892 334.024 460.616 351.711 451.76L383.871 435.657L389.956 435.551C399.048 435.393 405.775 436.682 410.358 439.463C411.397 440.093 412.547 440.644 412.913 440.688C413.786 440.79 415.281 441.81 414.558 441.81C413.721 441.81 410.963 444.527 409.59 446.705C408.883 447.825 408.306 448.859 408.306 449.002C408.306 449.462 403.612 456.971 400.168 462.02C394.476 470.365 387.248 480.74 374.097 499.441C344.306 541.803 341.257 546.296 340.961 548.281C340.756 549.653 341.615 551.317 343.009 552.25C345.21 553.723 347.353 552.861 349.497 549.64C353.172 544.117 367.337 523.685 377.292 509.546C405.894 468.926 411.535 460.616 415.985 452.546L417.292 450.178L419.596 450.291L421.9 450.403L423.064 449.162L424.228 447.921L429.903 451.709C435.267 455.289 439.25 458.427 446.14 464.504C451.429 469.168 456.218 474.016 456.421 474.911C456.706 476.166 461.163 490.944 465.106 503.704C468.595 514.994 493.728 595.464 493.963 596.095C494.032 596.281 492.487 597.057 490.53 597.819L486.97 599.204L477.669 599.405L468.368 599.606L464.27 600.747C460.94 601.673 459.49 601.911 456.545 602.011C452.427 602.15 451.62 602.419 449.609 604.314C448.317 605.532 447.937 605.698 445.364 606.174C442.236 606.752 437.626 608.156 435.047 609.315C434.126 609.73 432.023 610.947 430.376 612.019C426.348 614.642 421.362 617.013 411.932 620.792C395.89 627.221 396.125 627.177 376.304 627.499C357.273 627.808 329.011 627.795 322.074 627.473Z" fill="white"/>
<path d="M139.837 611.083C132.043 610.632 123.235 608.847 119.485 606.959C116.049 605.228 113.837 604.767 108.938 604.758C105.768 604.753 103.983 604.569 101.056 603.947C98.9753 603.505 95.9561 602.88 94.3469 602.56C92.2587 602.143 90.8711 601.648 89.4997 600.83C85.7259 598.579 84.9135 598.441 75.7749 598.502C67.6982 598.556 67.5852 598.548 61.0965 597.404C57.5 596.77 53.0432 596.098 51.1925 595.909C48.4649 595.631 47.1657 595.304 44.3318 594.183C42.4091 593.421 39.8428 592.64 38.6289 592.445C33.7101 591.657 31.1591 591.043 26.6479 589.561C22.4113 588.169 20.2981 587.658 15.4081 586.843L13.9423 586.598L51.4255 513.524C72.0412 473.333 88.9656 440.393 89.0352 440.323C89.1048 440.254 89.6389 440.488 90.222 440.844C90.8051 441.2 91.605 441.492 91.9994 441.493C92.9081 441.494 93.0041 441.748 94.9235 449.231C97.4661 459.142 100.844 474.861 104.54 493.98C105.639 499.661 106.696 504.606 106.891 504.971C107.427 505.973 109.108 506.859 110.478 506.861C112.21 506.862 113.675 505.856 114.291 504.24C114.787 502.939 114.764 502.72 113.378 495.489C107.986 467.368 103.01 445.234 100.579 438.558C99.5765 435.806 98.6218 434.462 96.7024 433.102L95.8168 432.475L106.305 423.895L116.793 415.316L127.684 410.696C133.675 408.156 138.692 405.964 138.835 405.825C139.052 405.616 142.82 374.862 142.829 373.229C142.833 372.587 154.741 365.17 155.099 365.587C155.229 365.739 155.58 367.71 155.879 369.968C157.589 382.89 161.56 397.236 165.756 405.652C168.586 411.328 172.19 416.212 174.391 417.352C175.675 418.017 177.264 417.915 178.487 417.09C179.81 416.197 180.341 415.183 180.347 413.538C180.352 412.145 179.954 411.424 178 409.284C171.917 402.621 166.111 384.977 163.816 366.179C163.247 361.513 163.223 361.081 163.28 356.447L163.326 352.716L188.653 340.149L213.98 327.582L218.369 328.505C220.783 329.012 223.082 329.494 223.479 329.575C224.156 329.714 224.119 329.793 222.848 330.891C219.345 333.918 216.77 337.75 216.006 341.073C215.023 345.35 216.023 358.161 219.446 385.126C219.953 389.12 220.43 393.028 220.506 393.81C220.837 397.213 225.465 427.901 225.975 430.084C226.773 433.493 226.771 440.992 225.972 443.287C224.028 448.867 220.488 450.008 210.413 448.301C203.649 447.155 198.241 445.986 199.521 445.947C202.312 445.861 204.164 443.207 203.258 440.593C203.039 439.96 198.87 434.312 193.995 428.043C187.527 419.725 184.867 416.534 184.154 416.239C181.011 414.935 177.606 417.881 178.501 421.129C178.764 422.084 193.745 441.883 196.389 444.769L197.22 445.676L196.116 445.489C192.399 444.857 187.007 444.617 182.009 444.86L176.572 445.125L162.269 420.652C151.21 401.729 147.731 396.017 146.929 395.468C144.25 393.632 140.625 395.574 140.625 398.845C140.625 400.223 141.659 402.089 156.217 426.986L171.809 453.652L173.873 453.627L175.938 453.602L175.935 455.363C175.933 456.332 175.51 483.887 174.994 516.595C173.96 582.199 173.885 577.563 175.998 578.853C178.138 580.16 180.993 579.34 181.935 577.147C182.445 575.963 182.553 571.383 183.316 519.02C183.771 487.757 184.227 460.153 184.33 457.678L184.516 453.178H186.375H188.234V515.151C188.234 573.529 188.266 577.187 188.786 578.207C190.431 581.44 194.548 581.44 196.194 578.207C196.713 577.188 196.745 573.554 196.746 515.676V454.227L199.505 454.827C201.022 455.157 204.574 455.826 207.398 456.314C210.223 456.802 212.574 457.255 212.624 457.321C212.731 457.464 205.615 610.82 205.495 610.94C205.267 611.168 143.634 611.302 139.836 611.083H139.837Z" fill="white"/>
<path d="M269.861 619.774C267.857 617.859 266.113 617.388 261.04 617.388C257.172 617.388 256.926 617.347 254.082 616.233C251.193 615.101 251.013 615.072 245.126 614.819C239.939 614.595 238.603 614.425 235.352 613.576C228.472 611.78 225.89 611.38 219.842 611.174L214.088 610.978L214.106 608.893C214.139 605.256 215.841 570.367 215.992 570.245C216.242 570.043 271.826 579.721 272.071 580.009C272.199 580.159 273.193 588.906 274.279 599.445C275.365 609.984 276.331 619.185 276.426 619.892L276.598 621.177L273.955 621.17L271.313 621.162L269.861 619.774Z" fill="white"/>
<path d="M266.268 569.7C264.534 569.387 252.616 567.326 239.784 565.119C226.952 562.913 216.41 561.069 216.358 561.022C216.246 560.92 217.259 539.585 217.382 539.459C217.429 539.411 229.162 541.752 243.455 544.662L269.442 549.953L270.309 559.75C270.785 565.137 271.171 569.723 271.165 569.94C271.152 570.45 270.164 570.402 266.268 569.7Z" fill="white"/>
<path d="M244.198 535.696C231.019 533.005 219.704 530.668 219.053 530.504L217.871 530.206L217.89 527.613C217.923 523.169 218.672 509.112 218.887 508.897C219.063 508.721 268.861 519.602 269.105 519.87C269.154 519.923 269.074 522.241 268.928 525.02C268.781 527.799 268.655 532.453 268.647 535.362C268.639 538.271 268.526 540.637 268.396 540.62C268.266 540.603 257.377 538.387 244.198 535.696Z" fill="white"/>
<path d="M244.04 505.061C230.427 502.025 219.254 499.507 219.211 499.465C219.052 499.31 219.835 482.998 220.032 482.376C220.228 481.757 221.214 481.969 245.708 487.902C269.524 493.672 271.17 494.114 271.036 494.704C270.957 495.052 270.641 498.782 270.335 502.994C269.859 509.53 269.705 510.646 269.284 510.616C269.012 510.597 257.653 508.097 244.04 505.061Z" fill="white"/>
<path d="M245.693 479.886C231.949 476.541 220.618 473.719 220.515 473.615C220.302 473.402 220.873 460.487 221.105 460.254C221.187 460.172 231.17 462.727 243.288 465.932L265.322 471.76L269.378 471.579L273.433 471.399L273.243 472.315C273.074 473.133 271.786 484.984 271.786 485.722C271.786 485.886 271.537 486.008 271.234 485.994C270.93 485.98 259.437 483.231 245.693 479.886Z" fill="white"/>
<path d="M271.638 458.625C271.143 448.808 272.905 437.263 276.045 429.751C276.667 428.263 278.807 424.293 280.801 420.928C285.328 413.287 288.753 406.373 290.245 401.863L291.395 398.389L297.631 392.073C304.528 385.088 306.454 383.015 312.212 376.382C320.795 366.494 328.563 356.455 335.115 346.784C338.485 341.808 338.627 341.533 338.627 339.94C338.627 337.91 337.64 336.539 335.776 335.98C334.759 335.675 334.314 335.701 333.179 336.135C331.945 336.607 331.503 337.113 328.715 341.241C327.014 343.761 324.28 347.632 322.639 349.843L319.656 353.863L319.868 351.81C320.336 347.273 323.073 332.526 323.527 332.1C323.802 331.84 360.012 337.013 361.319 337.498C362.094 337.786 363.391 338.642 364.201 339.401C366.224 341.296 367.051 343.342 367.239 346.916C367.371 349.411 367.537 350.057 368.601 352.214C369.268 353.565 370.421 355.538 371.163 356.599C372.327 358.261 372.514 358.75 372.517 360.156C372.521 362.257 373.254 363.376 375.148 364.172C378.957 365.774 379.927 366.302 382.18 367.994C388.186 372.507 392.527 379.936 394.134 388.449C397.209 404.742 400.374 414.214 405.108 421.284C407.18 424.377 407.172 424.369 409.611 426.098C412.771 428.337 415.244 431.389 413.9 431.389C413.682 431.389 412.279 430.907 410.782 430.319C405.455 428.224 400.534 427.306 393.324 427.062C383.245 426.721 373.768 428.26 362.431 432.077C346.978 437.281 323.757 447.205 301.58 458.083L294.013 461.794L284.082 462.36C278.619 462.671 273.634 462.935 273.003 462.947L271.856 462.967L271.638 458.625ZM310.215 439.419C327.066 422.965 332.187 418.136 332.588 418.318C332.875 418.447 333.748 418.608 334.528 418.675C336.398 418.836 386.111 413.843 388.758 413.228C394.184 411.969 396.571 407.329 394.799 401.486C394.133 399.288 392.259 396.049 391.016 394.948C390.003 394.05 387.586 393.935 386.33 394.726C384.087 396.137 383.796 398.724 385.563 401.551C386.562 403.15 387.318 405.171 386.923 405.187C386.805 405.192 376.351 406.243 363.692 407.523C351.033 408.802 340.652 409.828 340.623 409.803C340.594 409.777 344.82 405.636 350.014 400.599C355.207 395.562 359.665 391.058 359.919 390.589C361.65 387.397 358.577 383.544 355.13 384.585C354.145 384.882 347.49 391.231 319.517 418.559L285.115 452.167L282.096 452.278C279.255 452.382 279.021 452.443 278.109 453.318C276.245 455.108 276.187 457.566 277.969 459.35C279.19 460.574 279.547 460.647 284.567 460.71L288.362 460.757L310.215 439.419Z" fill="white"/>
<path d="M246.089 458.605L228.749 454.022L230.234 452.443C232.807 449.708 233.922 446.928 235.098 440.31C235.167 439.919 235.335 439.599 235.471 439.599C235.606 439.599 241.882 441.856 249.416 444.613L263.115 449.628L263.275 456.377C263.363 460.088 263.434 463.139 263.433 463.156C263.431 463.174 255.627 461.125 246.089 458.605Z" fill="white"/>
<path d="M249.104 436.175L234.778 430.906L234.367 429.332C233.984 427.861 231.399 411.089 230.916 406.94L230.698 405.07L232.719 406.541C245.626 415.945 253.301 418.847 266.452 419.299L271.681 419.478L270.047 422.698C267.519 427.682 265.386 434.319 264.387 440.31C264.279 440.961 264.019 441.483 263.81 441.469C263.601 441.455 256.983 439.073 249.104 436.175Z" fill="white"/>
<path d="M265.322 410.983C258.477 410.429 253.589 409.179 248.769 406.753C241.777 403.233 229.186 393.741 228.793 391.694C228.453 389.926 227.564 382.418 227.681 382.313C227.748 382.254 230.215 381.316 233.162 380.229C241.464 377.169 244.154 375.635 247.907 371.82C250.881 368.798 252.618 366.377 254.448 362.705C257.088 357.406 258.547 349.796 258.076 343.77C257.837 340.716 256.71 335.766 255.891 334.18C255.616 333.647 255.39 333.168 255.39 333.116C255.391 333.064 268.124 333.006 283.688 332.988C302.056 332.966 312.455 332.839 313.325 332.627C314.062 332.446 314.665 332.407 314.665 332.54C314.665 332.672 314.301 334.54 313.856 336.69C311.909 346.096 310.671 356.891 310.944 362.09L311.084 364.759L307.778 368.627C301.733 375.698 296.289 381.577 289.678 388.169C283.553 394.277 283.136 394.767 283.136 395.845C283.136 396.478 282.621 398.375 281.992 400.061C280.759 403.365 277.368 410.372 276.845 410.696C276.455 410.937 267.512 411.16 265.322 410.983Z" fill="white"/>
<path d="M225.951 369.1C224.446 356.169 223.663 346.026 223.997 343.794C224.517 340.323 228.574 336.327 234.544 333.406C238.024 331.704 238.182 331.677 242.383 332.071C244.57 332.276 244.715 332.341 245.793 333.6C248.589 336.868 249.902 341.646 249.618 347.522C249.382 352.388 248.504 355.957 246.71 359.334C244.414 363.658 241.838 366.573 238.207 368.958C237.113 369.677 227.409 373.6 226.724 373.6C226.587 373.6 226.239 371.575 225.951 369.1Z" fill="white"/>
<path d="M264.371 324.636C257.951 324.511 250.928 324.257 248.764 324.071C246.599 323.886 243.551 323.651 241.991 323.551C240.43 323.45 237.876 323.166 236.315 322.919C234.755 322.673 231.35 322.175 228.748 321.813C205.811 318.624 180.303 307.799 162.853 293.85C159.091 290.842 158.789 290.504 155.123 285.181C151.512 279.938 151.443 280.378 155.944 279.956C157.257 279.833 158.388 279.572 158.457 279.377C158.526 279.181 158.87 276.49 159.221 273.397C159.572 270.303 160.285 264.922 160.804 261.438C161.324 257.954 161.749 254.973 161.749 254.814C161.749 254.654 162.529 256.056 163.481 257.93C169.397 269.569 181.219 278.474 194.573 281.351C201.317 282.804 207.388 282.909 214.56 281.696C224.377 280.035 234.217 274.763 240.828 267.62C242.26 266.073 243.499 264.987 243.695 265.108C243.904 265.238 244.04 265.051 244.04 264.634C244.04 264.256 244.831 262.696 245.798 261.168C248.962 256.17 251.282 249.705 251.744 244.6C251.854 243.385 252.018 241.79 252.109 241.056L252.274 239.722L257.221 243.598C259.943 245.731 263.035 248.135 264.092 248.941C265.871 250.296 266.081 250.592 266.888 252.872C269.011 258.869 272.153 263.776 276.977 268.624C295.394 287.136 326.859 287.205 345.262 268.772C351.655 262.369 355.622 254.925 357.134 246.495C357.823 242.655 357.758 235.71 357 232.127L356.431 229.443L357.692 226.522C358.386 224.915 359.04 223.601 359.147 223.601C359.354 223.601 360.407 229.75 361.175 235.443C361.503 237.875 361.834 247.098 362.279 266.21C362.628 281.222 362.982 293.573 363.066 293.658C363.265 293.856 362.121 295.66 373.164 277.724L382.906 261.901L384.416 264.095C385.246 265.302 386.444 266.924 387.078 267.699C388.489 269.423 397.562 277.414 397.818 277.157C397.919 277.056 397.835 274.804 397.632 272.152C397.288 267.675 397.306 267.162 397.882 264.96C398.898 261.076 401.522 253.889 407.448 238.758L408.499 236.074L410.215 235.491C413.086 234.516 415.211 234.463 417.833 235.301C421.185 236.373 423.352 238.613 425.762 243.495C430.056 252.195 430.389 260.907 426.71 268.249C425.328 271.007 424.762 271.803 422.082 274.758C415.256 282.286 406.911 287.236 397.576 289.297C391.073 290.733 383.523 290.72 378.44 289.264C377.266 288.928 376.122 288.653 375.898 288.653C375.674 288.653 373.9 290.186 371.956 292.059C356.65 306.809 335.76 318.53 316.084 323.409L312.3 324.347L294.644 324.651C284.933 324.818 276.775 324.934 276.515 324.909C276.255 324.884 270.79 324.762 264.371 324.636ZM283.272 312.817C288.116 312.168 292.077 311.279 293.087 310.616C295.75 308.869 295.718 304.82 293.029 303.155C291.737 302.355 290.513 302.409 284.712 303.519C281.15 304.2 279.924 304.273 271.943 304.278C264.968 304.283 262.354 304.165 259.489 303.715C250.527 302.309 240.878 299.496 234.34 296.383C230.305 294.462 228.861 294.239 227.184 295.277C225.729 296.178 224.994 297.712 225.189 299.442C225.446 301.733 226.13 302.423 229.983 304.281C239.955 309.09 252.226 312.191 266.11 313.411C269.053 313.669 279.656 313.303 283.272 312.817Z" fill="white"/>
<path d="M200.678 273.377C198.484 273.096 194.257 272.108 192.193 271.393C177.087 266.165 167.306 252.822 167.975 238.355C168.351 230.203 171.552 223.183 177.704 217.017C184.36 210.344 192.68 206.627 202.622 205.883C205.592 205.66 210.362 205.858 210.682 206.217C210.784 206.331 211.601 208.283 212.497 210.555C220.93 231.919 229.22 248.131 235.443 255.423C236.432 256.583 237.241 257.646 237.241 257.786C237.241 258.282 233.699 262.314 231.861 263.911C226.772 268.33 220.293 271.487 213.47 272.873C211.496 273.274 210.154 273.376 206.252 273.421C203.615 273.451 201.107 273.431 200.678 273.377Z" fill="white"/>
<path d="M305.113 273.194C299.223 272.294 293.654 270.157 288.86 266.954C286.621 265.459 282.344 261.77 282.577 261.536C282.63 261.483 283.888 262.049 285.373 262.794L288.072 264.149V238.484V212.82L289.688 211.811C293.517 209.423 298.272 207.536 302.753 206.627C305.283 206.114 310.476 205.575 310.851 205.786C310.934 205.833 312.127 208.056 313.504 210.725C320.112 223.544 338.885 258.802 339.39 259.345C339.524 259.489 340.444 258.697 341.984 257.112C344.029 255.007 344.555 254.305 345.664 252.2C346.376 250.849 346.893 250.045 346.814 250.413C346.568 251.559 344.784 255.059 343.387 257.136C337.86 265.355 329.246 270.864 318.615 272.979C316.027 273.494 307.92 273.623 305.113 273.194Z" fill="white"/>
<path d="M242.298 245.612C242.222 245.182 241.905 242.067 241.594 238.69C241.283 235.313 240.967 232.055 240.892 231.45L240.755 230.351L241.422 230.892C242.216 231.536 242.642 233.158 243.054 237.101C243.314 239.588 243.117 243.388 242.613 245.612L242.436 246.394L242.298 245.612Z" fill="white"/>
<path d="M172.364 209.348C172.364 209.058 174.649 202.203 175.981 198.497C181.757 182.421 188.536 168.895 200.209 150.153L202.573 146.357L202.725 153.168C203.129 171.286 204.64 185.769 207.124 195.315L207.545 196.934H204.607C193.823 196.934 182.58 201.025 174.284 207.966C172.591 209.383 172.364 209.546 172.364 209.348Z" fill="white"/>
<path d="M288.099 183.338C288.114 172.824 288.189 163.176 288.266 161.899L288.406 159.577L291.175 165.584C294.712 173.258 299.44 183.099 303.326 190.874C305.005 194.234 306.348 197.005 306.31 197.033C306.273 197.061 305.264 197.208 304.069 197.359C299.677 197.916 293.957 199.625 289.811 201.618L288.072 202.454L288.099 183.338Z" fill="white"/>
<path d="M145.844 271.828L143.116 267.886L143.838 266.016C144.235 264.987 144.621 264.146 144.695 264.146C144.872 264.146 148.804 275.537 148.672 275.669C148.617 275.724 147.344 273.995 145.844 271.828Z" fill="white"/>
<path d="M111.195 297.194C111.195 297.194 81.1366 297.961 65.0545 309.275C48.9724 320.589 43.6117 335.354 43.6117 335.354" fill="white"/>
<path d="M121.342 321.931C121.342 321.931 99.3247 330.176 89.9435 340.148C80.5622 350.119 73.8613 357.598 73.8613 357.598" fill="white"/>
<path d="M445.44 349.219C445.44 349.219 467.642 355.185 469.808 362.778Z" fill="white"/>
<path d="M437.858 389.354C437.858 389.354 460.06 395.32 462.226 400.744Z" fill="white"/>
<path d="M172.46 206.322L161.281 257.775L168.32 271.049L193.137 285.305L222.047 284.138L244.83 281.998L244.255 264.879C244.255 264.879 233.534 254.957 222.812 233.752C212.091 212.547 206.73 191.537 206.73 191.537L172.46 206.322Z" fill="white"/>
<path d="M244.267 264.203L240.883 230.034L259.294 245.22L244.267 264.203Z" fill="white"/>
<path d="M263.496 248.297L288.29 264.404L288.13 197.627L306 195.729L339.032 259.186L357.173 227.186L359.068 243.186L355.278 286.847L278.654 289.559L265.387 267.864L263.496 248.297Z" fill="white"/>
</svg>
