<svg width="1921" height="1081" viewBox="0 0 1921 1081" fill="none" xmlns="http://www.w3.org/2000/svg">
<line x1="120.059" y1="0.88916" x2="120.059" y2="1080.89" stroke="#616161" stroke-opacity="0.3"/>
<line x1="240.05" y1="0.900879" x2="240.05" y2="1080.9" stroke="#616161" stroke-opacity="0.3"/>
<line x1="360.041" y1="0.900879" x2="360.041" y2="1080.9" stroke="#616161" stroke-opacity="0.3"/>
<line x1="480.032" y1="0.900879" x2="480.032" y2="1080.9" stroke="#616161" stroke-opacity="0.3"/>
<line x1="600.023" y1="0.900879" x2="600.023" y2="1080.9" stroke="#616161" stroke-opacity="0.3"/>
<line x1="720.014" y1="0.900879" x2="720.014" y2="1080.9" stroke="#616161" stroke-opacity="0.3"/>
<line x1="840.005" y1="0.900879" x2="840.005" y2="1080.9" stroke="#616161" stroke-opacity="0.3"/>
<line x1="959.996" y1="0.900879" x2="959.996" y2="1080.9" stroke="#616161" stroke-opacity="0.3"/>
<line x1="1079.99" y1="0.900879" x2="1079.99" y2="1080.9" stroke="#616161" stroke-opacity="0.3"/>
<line x1="1199.98" y1="0.900879" x2="1199.98" y2="1080.9" stroke="#616161" stroke-opacity="0.3"/>
<line x1="1319.97" y1="0.900879" x2="1319.97" y2="1080.9" stroke="#616161" stroke-opacity="0.3"/>
<line x1="1439.96" y1="0.900879" x2="1439.96" y2="1080.9" stroke="#616161" stroke-opacity="0.3"/>
<line x1="1559.95" y1="0.900879" x2="1559.95" y2="1080.9" stroke="#616161" stroke-opacity="0.3"/>
<line x1="1679.94" y1="0.900879" x2="1679.94" y2="1080.9" stroke="#616161" stroke-opacity="0.3"/>
<line x1="1799.93" y1="0.900879" x2="1799.93" y2="1080.9" stroke="#616161" stroke-opacity="0.3"/>
<line x1="1920.05" y1="120.872" x2="0.0458984" y2="120.872" stroke="#616161" stroke-opacity="0.3"/>
<line x1="1920.05" y1="241.389" x2="0.0458984" y2="241.389" stroke="#616161" stroke-opacity="0.3"/>
<line x1="1920.05" y1="361.906" x2="0.0458984" y2="361.906" stroke="#616161" stroke-opacity="0.3"/>
<line x1="1920.05" y1="482.423" x2="0.0458984" y2="482.423" stroke="#616161" stroke-opacity="0.3"/>
<line x1="1920.05" y1="602.94" x2="0.0458984" y2="602.94" stroke="#616161" stroke-opacity="0.3"/>
<line x1="1920.05" y1="723.458" x2="0.0458984" y2="723.458" stroke="#616161" stroke-opacity="0.3"/>
<line x1="1920.05" y1="843.975" x2="0.0458984" y2="843.975" stroke="#616161" stroke-opacity="0.3"/>
<line x1="1920.05" y1="964.492" x2="0.0458984" y2="964.492" stroke="#616161" stroke-opacity="0.3"/>
</svg>
